<svg width="24" height="25" viewBox="0 0 24 25" fill="none" xmlns="http://www.w3.org/2000/svg">
<path d="M11.844 9.09624C11.0086 9.09624 10.2262 9.42036 9.63386 10.0127C9.0443 10.6051 8.71739 11.3874 8.71739 12.2229C8.71739 13.0583 9.0443 13.8406 9.63386 14.433C10.2262 15.0226 11.0086 15.3495 11.844 15.3495C12.6794 15.3495 13.4618 15.0226 14.0541 14.433C14.6437 13.8406 14.9706 13.0583 14.9706 12.2229C14.9706 11.3874 14.6437 10.6051 14.0541 10.0127C13.7648 9.72116 13.4205 9.49001 13.041 9.33268C12.6616 9.17535 12.2547 9.09498 11.844 9.09624ZM23.3641 15.6764L21.5368 14.1145C21.6234 13.5836 21.6681 13.0415 21.6681 12.5023C21.6681 11.963 21.6234 11.4181 21.5368 10.8901L23.3641 9.32815C23.5022 9.20998 23.601 9.05258 23.6474 8.8769C23.6938 8.70121 23.6856 8.51556 23.624 8.34462L23.5988 8.27198C23.0959 6.86567 22.3424 5.56212 21.3747 4.42448L21.3244 4.3658C21.2069 4.22764 21.0503 4.12832 20.8752 4.08094C20.7002 4.03355 20.5148 4.04033 20.3437 4.10036L18.0749 4.90786C17.2366 4.22051 16.3034 3.67845 15.2919 3.30125L14.8533 0.929043C14.8202 0.750338 14.7335 0.585933 14.6047 0.45767C14.476 0.329407 14.3112 0.243358 14.1324 0.210956L14.0569 0.196985C12.604 -0.0656617 11.0728 -0.0656617 9.61989 0.196985L9.54445 0.210956C9.36561 0.243358 9.20087 0.329407 9.07211 0.45767C8.94335 0.585933 8.85666 0.750338 8.82356 0.929043L8.38209 3.31242C7.3802 3.69263 6.44688 4.23338 5.61872 4.91345L3.33313 4.10036C3.16203 4.03985 2.97658 4.03283 2.8014 4.08024C2.62622 4.12766 2.46961 4.22726 2.3524 4.3658L2.3021 4.42448C1.33616 5.56333 0.582803 6.86656 0.0779868 8.27198L0.0528397 8.34462C-0.0728954 8.69389 0.0304869 9.08506 0.312692 9.32815L2.1624 10.9068C2.07578 11.4321 2.03387 11.9686 2.03387 12.4995C2.03387 13.0359 2.07578 13.5724 2.1624 14.0921L0.318281 15.6708C0.180239 15.789 0.0814415 15.9464 0.0350243 16.122C-0.0113928 16.2977 -0.00322989 16.4834 0.0584279 16.6543L0.0835749 16.727C0.58931 18.1324 1.33534 19.4317 2.30769 20.5745L2.35798 20.6331C2.47549 20.7713 2.6321 20.8706 2.80717 20.918C2.98225 20.9654 3.16757 20.9586 3.33872 20.8986L5.6243 20.0855C6.45695 20.7701 7.3846 21.3121 8.38768 21.6865L8.82915 24.0699C8.86225 24.2486 8.94894 24.413 9.0777 24.5413C9.20646 24.6695 9.3712 24.7556 9.55003 24.788L9.62548 24.802C11.0927 25.066 12.5953 25.066 14.0625 24.802L14.138 24.788C14.3168 24.7556 14.4815 24.6695 14.6103 24.5413C14.7391 24.413 14.8258 24.2486 14.8589 24.0699L15.2975 21.6977C16.309 21.3177 17.2422 20.7784 18.0805 20.0911L20.3493 20.8986C20.5204 20.9591 20.7058 20.9661 20.881 20.9187C21.0562 20.8713 21.2128 20.7717 21.33 20.6331L21.3803 20.5745C22.3527 19.4261 23.0987 18.1324 23.6044 16.727L23.6296 16.6543C23.7497 16.3078 23.6463 15.9195 23.3641 15.6764ZM11.844 17.1349C9.13092 17.1349 6.93195 14.9359 6.93195 12.2229C6.93195 9.50977 9.13092 7.3108 11.844 7.3108C14.5571 7.3108 16.7561 9.50977 16.7561 12.2229C16.7561 14.9359 14.5571 17.1349 11.844 17.1349Z" fill="#4057A9"/>
</svg>
