<svg width="48" height="39" viewBox="0 0 48 39" fill="none" xmlns="http://www.w3.org/2000/svg">
<path d="M45.3754 2.02934e-05H39.3754V4.50002C39.3754 4.93338 39.29 5.3625 39.1242 5.76288C38.9584 6.16325 38.7153 6.52704 38.4088 6.83347C38.1024 7.13991 37.7386 7.38298 37.3382 7.54882C36.9379 7.71466 36.5088 7.80002 36.0754 7.80002C35.642 7.80002 35.2129 7.71466 34.8125 7.54882C34.4122 7.38298 34.0484 7.13991 33.7419 6.83347C33.4355 6.52704 33.1924 6.16325 33.0266 5.76288C32.8608 5.3625 32.7754 4.93338 32.7754 4.50002V2.02934e-05H15.3004V4.50002C15.3004 5.37524 14.9527 6.2146 14.3338 6.83347C13.715 7.45234 12.8756 7.80002 12.0004 7.80002C11.1252 7.80002 10.2858 7.45234 9.66694 6.83347C9.04807 6.2146 8.70039 5.37524 8.70039 4.50002V2.02934e-05H2.70039C2.34342 -0.00404191 1.98927 0.0635209 1.65887 0.198713C1.32847 0.333906 1.02853 0.533982 0.776806 0.787109C0.525077 1.04024 0.326666 1.34127 0.193306 1.67242C0.0599459 2.00356 -0.00565419 2.35808 0.000385577 2.71502V36.285C-0.00557395 36.6357 0.0576018 36.9841 0.186304 37.3103C0.315007 37.6365 0.506714 37.9342 0.750478 38.1863C0.994242 38.4384 1.28529 38.64 1.60699 38.7797C1.92869 38.9193 2.27474 38.9942 2.62539 39H45.3754C45.726 38.9942 46.0721 38.9193 46.3938 38.7797C46.7155 38.64 47.0065 38.4384 47.2503 38.1863C47.4941 37.9342 47.6858 37.6365 47.8145 37.3103C47.9432 36.9841 48.0064 36.6357 48.0004 36.285V2.71502C48.0064 2.36438 47.9432 2.016 47.8145 1.68977C47.6858 1.36355 47.4941 1.06588 47.2503 0.813756C47.0065 0.561635 46.7155 0.360005 46.3938 0.220382C46.0721 0.0807596 45.726 0.00588021 45.3754 2.02934e-05ZM12.0004 30H9.00039V27H12.0004V30ZM12.0004 22.5H9.00039V19.5H12.0004V22.5ZM12.0004 15H9.00039V12H12.0004V15ZM21.0004 30H18.0004V27H21.0004V30ZM21.0004 22.5H18.0004V19.5H21.0004V22.5ZM21.0004 15H18.0004V12H21.0004V15ZM30.0004 30H27.0004V27H30.0004V30ZM30.0004 22.5H27.0004V19.5H30.0004V22.5ZM30.0004 15H27.0004V12H30.0004V15ZM39.0004 30H36.0004V27H39.0004V30ZM39.0004 22.5H36.0004V19.5H39.0004V22.5ZM39.0004 15H36.0004V12H39.0004V15Z" fill="#06D6A0"/>
</svg>
