<svg width="27" height="22" viewBox="0 0 27 22" fill="current" xmlns="http://www.w3.org/2000/svg">
<path d="M25.2086 0.333333H21.8752V2.83333C21.8752 3.07409 21.8278 3.31249 21.7357 3.53492C21.6435 3.75735 21.5085 3.95946 21.3382 4.1297C21.168 4.29994 20.9659 4.43498 20.7435 4.52711C20.521 4.61925 20.2826 4.66667 20.0419 4.66667C19.8011 4.66667 19.5627 4.61925 19.3403 4.52711C19.1179 4.43498 18.9158 4.29994 18.7455 4.1297C18.5753 3.95946 18.4402 3.75735 18.3481 3.53492C18.256 3.31249 18.2086 3.07409 18.2086 2.83333V0.333333H8.50022V2.83333C8.50022 3.31956 8.30706 3.78588 7.96325 4.1297C7.61943 4.47351 7.15311 4.66667 6.66688 4.66667C6.18065 4.66667 5.71434 4.47351 5.37052 4.1297C5.0267 3.78588 4.83355 3.31956 4.83355 2.83333V0.333333H1.50021C1.3019 0.331076 1.10515 0.368611 0.921593 0.443718C0.738038 0.518825 0.571408 0.629978 0.431559 0.770604C0.29171 0.911231 0.181481 1.07847 0.107392 1.26244C0.0333033 1.44641 -0.00314122 1.64337 0.000214209 1.84167V20.4917C-0.00309664 20.6865 0.032001 20.88 0.103502 21.0613C0.175004 21.2425 0.281508 21.4079 0.416932 21.5479C0.552356 21.688 0.714047 21.8 0.89277 21.8776C1.07149 21.9551 1.26375 21.9967 1.45855 22H25.2086C25.4034 21.9967 25.5956 21.9551 25.7743 21.8776C25.9531 21.8 26.1147 21.688 26.2502 21.5479C26.3856 21.4079 26.4921 21.2425 26.5636 21.0613C26.6351 20.88 26.6702 20.6865 26.6669 20.4917V1.84167C26.6702 1.64687 26.6351 1.45332 26.5636 1.27208C26.4921 1.09085 26.3856 0.925476 26.2502 0.785408C26.1147 0.645341 25.9531 0.533324 25.7743 0.455756C25.5956 0.378188 25.4034 0.336588 25.2086 0.333333ZM6.66688 17H5.00022V15.3333H6.66688V17ZM6.66688 12.8333H5.00022V11.1667H6.66688V12.8333ZM6.66688 8.66667H5.00022V7H6.66688V8.66667ZM11.6669 17H10.0002V15.3333H11.6669V17ZM11.6669 12.8333H10.0002V11.1667H11.6669V12.8333ZM11.6669 8.66667H10.0002V7H11.6669V8.66667ZM16.6669 17H15.0002V15.3333H16.6669V17ZM16.6669 12.8333H15.0002V11.1667H16.6669V12.8333ZM16.6669 8.66667H15.0002V7H16.6669V8.66667ZM21.6669 17H20.0002V15.3333H21.6669V17ZM21.6669 12.8333H20.0002V11.1667H21.6669V12.8333ZM21.6669 8.66667H20.0002V7H21.6669V8.66667Z" fill="#4057A9"/>
</svg>
