<svg width="54" height="45" viewBox="0 0 54 45" fill="none" xmlns="http://www.w3.org/2000/svg">
<path d="M7.49893 25.5337V32.7812C7.49893 34.664 8.53059 36.4178 10.1813 37.3205L23.0771 44.3617C24.6246 45.2128 26.4816 45.2128 28.0291 44.3617L40.9249 37.3205C42.5756 36.4178 43.6072 34.664 43.6072 32.7812V25.5337L28.0291 34.045C26.4816 34.8961 24.6246 34.8961 23.0771 34.045L7.49893 25.5337ZM23.0771 0.619L1.33472 12.4832C-0.444906 13.4632 -0.444906 16.0424 1.33472 17.0225L23.0771 28.8867C24.6246 29.7378 26.4816 29.7378 28.0291 28.8867L48.7656 17.5641V32.807C48.7656 34.2255 49.9262 35.3862 51.3447 35.3862C52.7633 35.3862 53.9239 34.2255 53.9239 32.807V16.2745C53.9239 15.3202 53.4081 14.4691 52.5827 14.0049L28.0291 0.619C27.2671 0.212587 26.4167 0 25.5531 0C24.6895 0 23.8391 0.212587 23.0771 0.619Z" fill="#118AB2"/>
</svg>
