<svg width="21" height="25" viewBox="0 0 21 25" fill="none" xmlns="http://www.w3.org/2000/svg">
<path d="M15.5 14C16.9587 14 18.3576 14.5795 19.3891 15.6109C20.4205 16.6424 21 18.0413 21 19.5C21 20.9587 20.4205 22.3576 19.3891 23.3891C18.3576 24.4205 16.9587 25 15.5 25C14.0413 25 12.6424 24.4205 11.6109 23.3891C10.5795 22.3576 10 20.9587 10 19.5C10 18.0413 10.5795 16.6424 11.6109 15.6109C12.6424 14.5795 14.0413 14 15.5 14ZM10 0C11.0262 -8.02754e-07 12.0132 0.394435 12.7568 1.10172C13.5004 1.80901 13.9437 2.77504 13.995 3.8L14 4H19C19.2549 4.00028 19.5 4.09788 19.6854 4.27285C19.8707 4.44782 19.9822 4.68695 19.9972 4.94139C20.0121 5.19584 19.9293 5.44638 19.7657 5.64183C19.6021 5.83729 19.3701 5.9629 19.117 5.993L19 6H18.151L17.557 13.332C16.1784 12.8715 14.6852 12.8864 13.316 13.3743C11.9468 13.8622 10.7807 14.7949 10.0039 16.0234C9.22707 17.2519 8.88445 18.7054 9.03077 20.1515C9.17708 21.5976 9.80387 22.953 10.811 24.001L6.766 24C5.82384 24.0001 4.91619 23.6455 4.22357 23.0068C3.53095 22.3681 3.10413 21.4921 3.028 20.553L1.848 6H1C0.755067 5.99997 0.518663 5.91004 0.335628 5.74728C0.152593 5.58453 0.0356572 5.36025 0.00699997 5.117L0 5C3.23106e-05 4.75507 0.089956 4.51866 0.252715 4.33563C0.415474 4.15259 0.639749 4.03566 0.883 4.007L1 4H6C6 2.93913 6.42143 1.92172 7.17157 1.17157C7.92172 0.421427 8.93913 0 10 0ZM13.73 17.024L13.662 16.966C13.5784 16.9082 13.4792 16.8772 13.3775 16.8772C13.2758 16.8772 13.1766 16.9082 13.093 16.966L13.023 17.024L12.966 17.094C12.9084 17.1775 12.8775 17.2765 12.8775 17.378C12.8775 17.4795 12.9084 17.5785 12.966 17.662L13.024 17.732L14.794 19.501L13.026 21.267L12.968 21.337C12.9104 21.4205 12.8795 21.5195 12.8795 21.621C12.8795 21.7225 12.9104 21.8215 12.968 21.905L13.026 21.975L13.096 22.032C13.1795 22.0896 13.2785 22.1205 13.38 22.1205C13.4815 22.1205 13.5805 22.0896 13.664 22.032L13.734 21.975L15.5 20.208L17.27 21.977L17.339 22.035C17.4225 22.0926 17.5215 22.1235 17.623 22.1235C17.7245 22.1235 17.8235 22.0926 17.907 22.035L17.977 21.977L18.034 21.907C18.0916 21.8235 18.1225 21.7245 18.1225 21.623C18.1225 21.5215 18.0916 21.4225 18.034 21.339L17.977 21.269L16.207 19.501L17.979 17.731L18.037 17.662C18.0948 17.5784 18.1258 17.4792 18.1258 17.3775C18.1258 17.2758 18.0948 17.1766 18.037 17.093L17.979 17.024L17.91 16.966C17.8264 16.9082 17.7272 16.8772 17.6255 16.8772C17.5238 16.8772 17.4246 16.9082 17.341 16.966L17.272 17.024L15.5 18.794L13.73 17.024L13.662 16.966L13.731 17.024H13.73ZM10 2C9.49542 1.99984 9.00943 2.19041 8.63945 2.5335C8.26947 2.87659 8.04284 3.34684 8.005 3.85L8 4H12L11.995 3.85C11.9572 3.34684 11.7305 2.87659 11.3605 2.5335C10.9906 2.19041 10.5046 1.99984 10 2Z" fill="#4057A9"/>
</svg>
