<svg width="32" height="25" viewBox="0 0 32 25" fill="none" xmlns="http://www.w3.org/2000/svg">
<path d="M10.9372 12.4997C14.3893 12.4997 17.1871 9.70192 17.1871 6.24985C17.1871 2.79779 14.3893 0 10.9372 0C7.48517 0 4.68739 2.79779 4.68739 6.24985C4.68739 9.70192 7.48517 12.4997 10.9372 12.4997ZM15.3121 14.0622H14.4967C13.4128 14.5602 12.2067 14.8434 10.9372 14.8434C9.66774 14.8434 8.4666 14.5602 7.37775 14.0622H6.56234C2.93938 14.0622 0 17.0015 0 20.6245V22.6557C0 23.9496 1.04978 24.9994 2.34369 24.9994H15.7662C15.649 24.6674 15.6002 24.3158 15.6393 23.9594L15.9713 20.9858L16.0299 20.4439L16.4156 20.0581L20.19 16.2838C18.9937 14.9313 17.2603 14.0622 15.3121 14.0622ZM17.524 21.1567L17.192 24.1352C17.1383 24.6332 17.5582 25.0531 18.0513 24.9945L21.0249 24.6625L27.7581 17.9293L24.2572 14.4284L17.524 21.1567ZM30.9075 13.1296L29.0569 11.279C28.6028 10.8249 27.8607 10.8249 27.4066 11.279L25.5609 13.1247L25.3607 13.3249L28.8665 16.8258L30.9075 14.7848C31.3616 14.3258 31.3616 13.5885 30.9075 13.1296Z" fill="#4057A9"/>
</svg>
