<svg width="26" height="25" viewBox="0 0 26 25" fill="none" xmlns="http://www.w3.org/2000/svg">
<path d="M24.6966 12.905L13.4385 0.395912C12.9644 -0.131971 12.0537 -0.131971 11.5796 0.395912L0.321463 12.905C0.159416 13.0846 0.053049 13.3074 0.0152962 13.5464C-0.0224567 13.7853 0.0100307 14.0301 0.108809 14.251C0.308954 14.7025 0.756778 14.9927 1.25089 14.9927H3.7527V23.7491C3.7527 24.0809 3.88449 24.399 4.11908 24.6336C4.35367 24.8682 4.67185 25 5.00361 25H8.75633C9.08809 25 9.40626 24.8682 9.64085 24.6336C9.87544 24.399 10.0072 24.0809 10.0072 23.7491V18.7455H15.0109V23.7491C15.0109 24.0809 15.1427 24.399 15.3772 24.6336C15.6118 24.8682 15.93 25 16.2618 25H20.0145C20.3463 25 20.6644 24.8682 20.899 24.6336C21.1336 24.399 21.2654 24.0809 21.2654 23.7491V14.9927H23.7672C24.0095 14.9938 24.2468 14.9243 24.4503 14.7928C24.6537 14.6613 24.8145 14.4734 24.913 14.2521C25.0116 14.0308 25.0436 13.7855 25.0051 13.5464C24.9667 13.3072 24.8595 13.0843 24.6966 12.905Z" fill="#4057A9"/>
</svg>
