<svg width="28" height="30" viewBox="0 0 28 30" fill="none" xmlns="http://www.w3.org/2000/svg">
<path d="M27.6923 16.1538C27.6923 18.0288 27.3257 19.8197 26.5925 21.5264C25.8594 23.2332 24.8738 24.7055 23.6358 25.9435C22.3978 27.1815 20.9255 28.1671 19.2188 28.9002C17.512 29.6334 15.7212 30 13.8462 30C11.9712 30 10.1803 29.6334 8.47356 28.9002C6.76683 28.1671 5.29447 27.1815 4.05649 25.9435C2.81851 24.7055 1.83293 23.2332 1.09976 21.5264C0.366587 19.8197 0 18.0288 0 16.1538C0 13.9663 0.483774 11.905 1.45132 9.96995C2.41887 8.03486 3.78005 6.41226 5.53486 5.10216C6.05168 4.71755 6.6256 4.56731 7.25661 4.65144C7.88762 4.73558 8.38942 5.03606 8.76202 5.55288C9.14663 6.05769 9.29387 6.6256 9.20373 7.25661C9.11358 7.88762 8.81611 8.39543 8.3113 8.78005C7.13341 9.66947 6.22296 10.7572 5.57993 12.0433C4.9369 13.3293 4.61538 14.6995 4.61538 16.1538C4.61538 17.4038 4.85877 18.5968 5.34555 19.7326C5.83233 20.8684 6.49038 21.851 7.31971 22.6803C8.14904 23.5096 9.13161 24.1677 10.2674 24.6544C11.4032 25.1412 12.5962 25.3846 13.8462 25.3846C15.0962 25.3846 16.2891 25.1412 17.4249 24.6544C18.5607 24.1677 19.5433 23.5096 20.3726 22.6803C21.2019 21.851 21.86 20.8684 22.3468 19.7326C22.8335 18.5968 23.0769 17.4038 23.0769 16.1538C23.0769 14.6995 22.7554 13.3293 22.1124 12.0433C21.4694 10.7572 20.5589 9.66947 19.381 8.78005C18.8762 8.39543 18.5787 7.88762 18.4886 7.25661C18.3984 6.6256 18.5457 6.05769 18.9303 5.55288C19.3029 5.03606 19.8077 4.73558 20.4447 4.65144C21.0817 4.56731 21.6526 4.71755 22.1575 5.10216C23.9123 6.41226 25.2734 8.03486 26.241 9.96995C27.2085 11.905 27.6923 13.9663 27.6923 16.1538ZM16.1538 2.30769V13.8462C16.1538 14.4712 15.9255 15.012 15.4688 15.4688C15.012 15.9255 14.4712 16.1538 13.8462 16.1538C13.2212 16.1538 12.6803 15.9255 12.2236 15.4688C11.7668 15.012 11.5385 14.4712 11.5385 13.8462V2.30769C11.5385 1.68269 11.7668 1.14183 12.2236 0.685096C12.6803 0.228365 13.2212 0 13.8462 0C14.4712 0 15.012 0.228365 15.4688 0.685096C15.9255 1.14183 16.1538 1.68269 16.1538 2.30769Z" fill="#4057A9"/>
</svg>
