<svg width="25" height="25" viewBox="0 0 25 25" fill="none" xmlns="http://www.w3.org/2000/svg">
<path d="M1.25 5C0.5625 5 0 5.5625 0 6.25V22.5C0 23.875 1.125 25 2.5 25H18.75C19.4375 25 20 24.4375 20 23.75C20 23.0625 19.4375 22.5 18.75 22.5H3.75C3.0625 22.5 2.5 21.9375 2.5 21.25V6.25C2.5 5.5625 1.9375 5 1.25 5ZM22.5 0H7.5C6.125 0 5 1.125 5 2.5V17.5C5 18.875 6.125 20 7.5 20H22.5C23.875 20 25 18.875 25 17.5V2.5C25 1.125 23.875 0 22.5 0ZM20 11.25H10C9.3125 11.25 8.75 10.6875 8.75 10C8.75 9.3125 9.3125 8.75 10 8.75H20C20.6875 8.75 21.25 9.3125 21.25 10C21.25 10.6875 20.6875 11.25 20 11.25ZM15 16.25H10C9.3125 16.25 8.75 15.6875 8.75 15C8.75 14.3125 9.3125 13.75 10 13.75H15C15.6875 13.75 16.25 14.3125 16.25 15C16.25 15.6875 15.6875 16.25 15 16.25ZM20 6.25H10C9.3125 6.25 8.75 5.6875 8.75 5C8.75 4.3125 9.3125 3.75 10 3.75H20C20.6875 3.75 21.25 4.3125 21.25 5C21.25 5.6875 20.6875 6.25 20 6.25Z" fill="#4057A9"/>
</svg>
