<svg width="50" height="37" viewBox="0 0 50 37" fill="none" xmlns="http://www.w3.org/2000/svg">
<path d="M15 18.0469C19.8359 18.0469 23.75 14.0105 23.75 9.02344C23.75 4.03638 19.8359 0 15 0C10.1641 0 6.25 4.03638 6.25 9.02344C6.25 14.0105 10.1641 18.0469 15 18.0469ZM21 20.625H20.3516C18.7266 21.4307 16.9219 21.9141 15 21.9141C13.0781 21.9141 11.2812 21.4307 9.64844 20.625H9C4.03125 20.625 0 24.7822 0 29.9062V32.2266C0 34.3616 1.67969 36.0937 3.75 36.0937H26.25C28.3203 36.0937 30 34.3616 30 32.2266V29.9062C30 24.7822 25.9687 20.625 21 20.625ZM37.5 18.0469C41.6406 18.0469 45 14.5825 45 10.3125C45 6.04248 41.6406 2.57812 37.5 2.57812C33.3594 2.57812 30 6.04248 30 10.3125C30 14.5825 33.3594 18.0469 37.5 18.0469ZM41.25 20.625H40.9531C39.8672 21.0117 38.7188 21.2695 37.5 21.2695C36.2812 21.2695 35.1328 21.0117 34.0469 20.625H33.75C32.1562 20.625 30.6875 21.1003 29.3984 21.8657C31.3047 23.9846 32.5 26.7964 32.5 29.9062V33C32.5 33.1772 32.4609 33.3464 32.4531 33.5156H46.25C48.3203 33.5156 50 31.7834 50 29.6484C50 24.6614 46.0859 20.625 41.25 20.625Z" fill="#EF476F"/>
</svg>
