<svg width="35" height="25" viewBox="0 0 35 25" fill="none" xmlns="http://www.w3.org/2000/svg">
<path d="M10.3896 12.5C13.7392 12.5 16.4502 9.70424 16.4502 6.25C16.4502 2.79576 13.7392 0 10.3896 0C7.04004 0 4.329 2.79576 4.329 6.25C4.329 9.70424 7.04004 12.5 10.3896 12.5ZM14.5455 14.2857H14.0963C12.9708 14.8438 11.7208 15.1786 10.3896 15.1786C9.05844 15.1786 7.81385 14.8438 6.6829 14.2857H6.23377C2.79221 14.2857 0 17.1652 0 20.7143V22.3214C0 23.8002 1.16342 25 2.5974 25H18.1818C19.6158 25 20.7792 23.8002 20.7792 22.3214V20.7143C20.7792 17.1652 17.987 14.2857 14.5455 14.2857ZM25.974 12.5C28.842 12.5 31.1688 10.1004 31.1688 7.14286C31.1688 4.18527 28.842 1.78571 25.974 1.78571C23.1061 1.78571 20.7792 4.18527 20.7792 7.14286C20.7792 10.1004 23.1061 12.5 25.974 12.5ZM28.5714 14.2857H28.3658C27.6136 14.5536 26.8182 14.7321 25.974 14.7321C25.1299 14.7321 24.3344 14.5536 23.5823 14.2857H23.3766C22.2727 14.2857 21.2554 14.615 20.3626 15.1451C21.6829 16.6127 22.5108 18.5603 22.5108 20.7143V22.8571C22.5108 22.9799 22.4838 23.0971 22.4784 23.2143H32.0346C33.4686 23.2143 34.632 22.0145 34.632 20.5357C34.632 17.0815 31.921 14.2857 28.5714 14.2857Z" fill="#4057A9"/>
</svg>
