<svg width="65" height="65" viewBox="0 0 65 65" fill="none" xmlns="http://www.w3.org/2000/svg">
<path d="M57.4469 53.2299C60.7804 49.2192 63.0989 44.4646 64.2062 39.3683C65.3136 34.272 65.1772 28.9839 63.8086 23.9515C62.4399 18.9191 59.8794 14.2903 56.3436 10.4568C52.8077 6.62322 48.4006 3.69767 43.4949 1.92761C38.5893 0.157542 33.3295 -0.404962 28.1605 0.287678C22.9915 0.980319 18.0653 2.90773 13.7988 5.90686C9.5322 8.90598 6.05074 12.8886 3.64888 17.5178C1.24703 22.147 -0.00455553 27.2866 1.24593e-05 32.5018C0.00176536 40.0832 2.67342 47.4218 7.54617 53.2299L7.49975 53.2694C7.66223 53.4644 7.84793 53.6315 8.01505 53.8242C8.22396 54.0632 8.44911 54.2884 8.66498 54.5205C9.31491 55.2262 9.98342 55.9039 10.6844 56.5399C10.898 56.7349 11.1185 56.916 11.3343 57.1017C12.0771 57.7423 12.8408 58.3505 13.6323 58.9168C13.7344 58.9865 13.8273 59.077 13.9294 59.149V59.1211C19.3659 62.9468 25.8513 65 32.4989 65C39.1465 65 45.6319 62.9468 51.0683 59.1211V59.149C51.1705 59.077 51.261 58.9865 51.3654 58.9168C52.1546 58.3481 52.9206 57.7423 53.6634 57.1017C53.8793 56.916 54.0998 56.7326 54.3133 56.5399C55.0143 55.9016 55.6828 55.2262 56.3328 54.5205C56.5486 54.2884 56.7715 54.0632 56.9827 53.8242C57.1475 53.6315 57.3355 53.4644 57.498 53.2671L57.4469 53.2299ZM32.4966 13.9323C34.5624 13.9323 36.5819 14.5449 38.2997 15.6927C40.0174 16.8404 41.3562 18.4718 42.1468 20.3804C42.9374 22.289 43.1442 24.3892 42.7412 26.4154C42.3381 28.4416 41.3433 30.3028 39.8825 31.7636C38.4217 33.2244 36.5605 34.2192 34.5343 34.6223C32.5081 35.0253 30.4079 34.8184 28.4993 34.0279C26.5907 33.2373 24.9593 31.8985 23.8116 30.1808C22.6638 28.463 22.0512 26.4435 22.0512 24.3776C22.0512 21.6074 23.1517 18.9506 25.1106 16.9917C27.0695 15.0328 29.7263 13.9323 32.4966 13.9323ZM13.9434 53.2299C13.9836 50.1822 15.2222 47.2728 17.3911 45.1312C19.5601 42.9896 22.485 41.7881 25.533 41.7865H39.4601C42.5082 41.7881 45.433 42.9896 47.602 45.1312C49.7709 47.2728 51.0095 50.1822 51.0498 53.2299C45.959 57.8174 39.3493 60.3561 32.4966 60.3561C25.6438 60.3561 19.0341 57.8174 13.9434 53.2299Z" fill="#4057A9"/>
</svg>
